<mxfile host="Electron" agent="Mozilla/5.0 (Windows NT 10.0; Win64; x64) AppleWebKit/537.36 (KHTML, like Gecko) draw.io/28.2.5 Chrome/138.0.7204.251 Electron/37.6.1 Safari/537.36" version="28.2.5">
  <diagram name="第 1 页" id="bpJ6yRSIvICyiwiW2ggQ">
    <mxGraphModel dx="1818" dy="1264" grid="1" gridSize="10" guides="1" tooltips="1" connect="1" arrows="1" fold="1" page="1" pageScale="1" pageWidth="827" pageHeight="1169" math="0" shadow="0">
      <root>
        <mxCell id="0" />
        <mxCell id="1" parent="0" />
        <mxCell id="r17NGM6GQ5Rj43qUK7l2-1" value="user" style="shape=umlActor;verticalLabelPosition=bottom;verticalAlign=top;html=1;outlineConnect=0;" vertex="1" parent="1">
          <mxGeometry x="10" y="480" width="30" height="60" as="geometry" />
        </mxCell>
        <mxCell id="r17NGM6GQ5Rj43qUK7l2-2" value="" style="rounded=0;whiteSpace=wrap;html=1;" vertex="1" parent="1">
          <mxGeometry x="160" y="40" width="480" height="730" as="geometry" />
        </mxCell>
        <mxCell id="r17NGM6GQ5Rj43qUK7l2-3" value="用户登录" style="ellipse;whiteSpace=wrap;html=1;fillColor=#ffe6cc;strokeColor=#d79b00;" vertex="1" parent="1">
          <mxGeometry x="190" y="60" width="120" height="60" as="geometry" />
        </mxCell>
        <mxCell id="r17NGM6GQ5Rj43qUK7l2-5" value="" style="endArrow=classic;html=1;rounded=0;exitX=1;exitY=0.3333333333333333;exitDx=0;exitDy=0;exitPerimeter=0;entryX=0;entryY=1;entryDx=0;entryDy=0;fillColor=#dae8fc;strokeColor=#6c8ebf;" edge="1" parent="1" source="r17NGM6GQ5Rj43qUK7l2-1" target="r17NGM6GQ5Rj43qUK7l2-3">
          <mxGeometry width="50" height="50" relative="1" as="geometry">
            <mxPoint x="110" y="370" as="sourcePoint" />
            <mxPoint x="160" y="320" as="targetPoint" />
          </mxGeometry>
        </mxCell>
        <mxCell id="r17NGM6GQ5Rj43qUK7l2-6" value="邮箱验证码" style="ellipse;whiteSpace=wrap;html=1;fillColor=#ffe6cc;strokeColor=#d79b00;" vertex="1" parent="1">
          <mxGeometry x="430" y="60" width="120" height="60" as="geometry" />
        </mxCell>
        <mxCell id="r17NGM6GQ5Rj43qUK7l2-7" value="include" style="endArrow=open;endSize=12;dashed=1;html=1;rounded=0;exitX=1;exitY=0.5;exitDx=0;exitDy=0;entryX=0;entryY=0.5;entryDx=0;entryDy=0;fillColor=#dae8fc;strokeColor=#6c8ebf;" edge="1" parent="1" source="r17NGM6GQ5Rj43qUK7l2-3" target="r17NGM6GQ5Rj43qUK7l2-6">
          <mxGeometry width="160" relative="1" as="geometry">
            <mxPoint x="340" y="230" as="sourcePoint" />
            <mxPoint x="500" y="230" as="targetPoint" />
          </mxGeometry>
        </mxCell>
        <mxCell id="r17NGM6GQ5Rj43qUK7l2-8" value="用户注册" style="ellipse;whiteSpace=wrap;html=1;fillColor=#ffe6cc;strokeColor=#d79b00;" vertex="1" parent="1">
          <mxGeometry x="190" y="170" width="120" height="60" as="geometry" />
        </mxCell>
        <mxCell id="r17NGM6GQ5Rj43qUK7l2-10" value="include" style="endArrow=open;endSize=12;dashed=1;html=1;rounded=0;exitX=1;exitY=0.5;exitDx=0;exitDy=0;fillColor=#dae8fc;strokeColor=#6c8ebf;" edge="1" parent="1" source="r17NGM6GQ5Rj43qUK7l2-8" target="r17NGM6GQ5Rj43qUK7l2-6">
          <mxGeometry width="160" relative="1" as="geometry">
            <mxPoint x="360" y="260" as="sourcePoint" />
            <mxPoint x="520" y="260" as="targetPoint" />
          </mxGeometry>
        </mxCell>
        <mxCell id="r17NGM6GQ5Rj43qUK7l2-11" value="" style="endArrow=classic;html=1;rounded=0;exitX=1;exitY=0.3333333333333333;exitDx=0;exitDy=0;exitPerimeter=0;fillColor=#dae8fc;strokeColor=#6c8ebf;" edge="1" parent="1" source="r17NGM6GQ5Rj43qUK7l2-1" target="r17NGM6GQ5Rj43qUK7l2-8">
          <mxGeometry width="50" height="50" relative="1" as="geometry">
            <mxPoint x="130" y="440" as="sourcePoint" />
            <mxPoint x="250" y="190" as="targetPoint" />
          </mxGeometry>
        </mxCell>
        <mxCell id="r17NGM6GQ5Rj43qUK7l2-12" value="找回密码" style="ellipse;whiteSpace=wrap;html=1;fillColor=#ffe6cc;strokeColor=#d79b00;" vertex="1" parent="1">
          <mxGeometry x="190" y="280" width="120" height="60" as="geometry" />
        </mxCell>
        <mxCell id="r17NGM6GQ5Rj43qUK7l2-13" value="" style="endArrow=classic;html=1;rounded=0;exitX=1;exitY=0.3333333333333333;exitDx=0;exitDy=0;exitPerimeter=0;fillColor=#dae8fc;strokeColor=#6c8ebf;" edge="1" parent="1" source="r17NGM6GQ5Rj43qUK7l2-1" target="r17NGM6GQ5Rj43qUK7l2-12">
          <mxGeometry width="50" height="50" relative="1" as="geometry">
            <mxPoint x="140" y="503" as="sourcePoint" />
            <mxPoint x="324" y="310" as="targetPoint" />
          </mxGeometry>
        </mxCell>
        <mxCell id="r17NGM6GQ5Rj43qUK7l2-14" value="include" style="endArrow=open;endSize=12;dashed=1;html=1;rounded=0;exitX=1;exitY=0.5;exitDx=0;exitDy=0;entryX=0.5;entryY=1;entryDx=0;entryDy=0;fillColor=#dae8fc;strokeColor=#6c8ebf;" edge="1" parent="1" source="r17NGM6GQ5Rj43qUK7l2-12" target="r17NGM6GQ5Rj43qUK7l2-6">
          <mxGeometry width="160" relative="1" as="geometry">
            <mxPoint x="430" y="267" as="sourcePoint" />
            <mxPoint x="572" y="180" as="targetPoint" />
          </mxGeometry>
        </mxCell>
        <mxCell id="r17NGM6GQ5Rj43qUK7l2-15" value="菜品分类" style="ellipse;whiteSpace=wrap;html=1;fillColor=#ffe6cc;strokeColor=#d79b00;" vertex="1" parent="1">
          <mxGeometry x="190" y="375" width="120" height="60" as="geometry" />
        </mxCell>
        <mxCell id="r17NGM6GQ5Rj43qUK7l2-16" value="" style="endArrow=classic;html=1;rounded=0;exitX=1;exitY=0.3333333333333333;exitDx=0;exitDy=0;exitPerimeter=0;fillColor=#dae8fc;strokeColor=#6c8ebf;entryX=0;entryY=1;entryDx=0;entryDy=0;" edge="1" parent="1" source="r17NGM6GQ5Rj43qUK7l2-1" target="r17NGM6GQ5Rj43qUK7l2-15">
          <mxGeometry width="50" height="50" relative="1" as="geometry">
            <mxPoint x="140" y="584" as="sourcePoint" />
            <mxPoint x="321" y="420" as="targetPoint" />
          </mxGeometry>
        </mxCell>
      </root>
    </mxGraphModel>
  </diagram>
</mxfile>
